<svg xmlns="http://www.w3.org/2000/svg" viewBox="0 0 69.87 65.99"><defs><style>.cls-1{fill:#32338e;}.cls-2,.cls-3,.cls-4,.cls-5,.cls-6{fill:#00acec;}.cls-3{opacity:0.8;}.cls-4{opacity:0.3;}.cls-5{opacity:0.4;}.cls-6{opacity:0.2;}</style></defs><title>ISO</title><g id="Capa_2" data-name="Capa 2"><g id="Layer_1" data-name="Layer 1"><rect class="cls-1" x="28.12" y="26.53" width="12.84" height="12.84"/><rect class="cls-2" x="12.34" y="26.83" width="11.74" height="11.74"/><rect class="cls-2" x="14.44" y="12.06" width="9.37" height="9.37"/><rect class="cls-2" x="14.49" y="44.65" width="9.31" height="9.31"/><rect class="cls-2" x="44.68" y="26.68" width="12.03" height="12.03"/><rect class="cls-3" x="60.26" y="27.79" width="9.61" height="9.61"/><rect class="cls-3" y="27.79" width="9.61" height="9.61"/><rect class="cls-4" x="62.11" y="45.86" width="5.91" height="5.9"/><rect class="cls-3" x="31" width="7.33" height="7.33"/><rect class="cls-5" x="15.92" y="0.04" width="7.25" height="7.25"/><rect class="cls-6" x="3.52" y="0.75" width="5.83" height="5.83"/><rect class="cls-6" x="61.81" y="59.35" width="5.83" height="5.83"/><rect class="cls-4" x="47.19" y="58.76" width="7.02" height="7.02"/><rect class="cls-3" x="31.96" y="58.56" width="7.43" height="7.43"/><rect class="cls-4" x="2.28" y="13.84" width="6.11" height="6.11"/><rect class="cls-2" x="45.78" y="43.73" width="9.83" height="9.83"/><rect class="cls-2" x="46.01" y="12.06" width="9.38" height="9.38"/><rect class="cls-2" x="29.08" y="10.77" width="11.45" height="11.45"/><rect class="cls-2" x="29.01" y="43.64" width="11.59" height="11.59"/></g></g></svg>