<svg xmlns="http://www.w3.org/2000/svg" viewBox="0 0 335.8 65.99"><defs><style>.cls-1{fill:#32338e;}.cls-2,.cls-3,.cls-4,.cls-5,.cls-6{fill:#00acec;}.cls-3{opacity:0.8;}.cls-4{opacity:0.3;}.cls-5{opacity:0.4;}.cls-6{opacity:0.2;}.cls-7{fill:#58595b;}</style></defs><title>LOGO_1</title><g id="Capa_2" data-name="Capa 2"><g id="Layer_1" data-name="Layer 1"><rect class="cls-1" x="28.12" y="26.53" width="12.84" height="12.84"/><rect class="cls-2" x="12.34" y="26.83" width="11.74" height="11.74"/><rect class="cls-2" x="14.44" y="12.06" width="9.37" height="9.37"/><rect class="cls-2" x="14.49" y="44.65" width="9.31" height="9.31"/><rect class="cls-2" x="44.68" y="26.68" width="12.03" height="12.03"/><rect class="cls-3" x="60.26" y="27.79" width="9.61" height="9.61"/><rect class="cls-3" y="27.79" width="9.61" height="9.61"/><rect class="cls-4" x="62.11" y="45.86" width="5.91" height="5.9"/><rect class="cls-3" x="31" width="7.33" height="7.33"/><rect class="cls-5" x="15.92" y="0.04" width="7.25" height="7.25"/><rect class="cls-6" x="3.52" y="0.75" width="5.83" height="5.83"/><rect class="cls-6" x="61.81" y="59.35" width="5.83" height="5.83"/><rect class="cls-4" x="47.19" y="58.76" width="7.02" height="7.02"/><rect class="cls-3" x="31.96" y="58.56" width="7.43" height="7.43"/><rect class="cls-4" x="2.28" y="13.84" width="6.11" height="6.11"/><rect class="cls-2" x="45.78" y="43.73" width="9.83" height="9.83"/><rect class="cls-2" x="46.01" y="12.06" width="9.38" height="9.38"/><rect class="cls-2" x="29.08" y="10.77" width="11.45" height="11.45"/><rect class="cls-2" x="29.01" y="43.64" width="11.59" height="11.59"/><path class="cls-2" d="M103.49,8.47h7.05V36.86h-4.86v-22l.2,1.25L100.45,33.7H95.72L90.29,16.45l.2-1.64v22H85.62V8.47h7l5.41,19.14Z"/><path class="cls-2" d="M122,36.86H116.4V8.47H122Z"/><path class="cls-2" d="M127.81,8.47h6.54l10.57,21.75-.47.51V8.47h5.12V36.84H143L132.46,15.42l.47-.51V36.84h-5.12Z"/><path class="cls-2" d="M155.82,8.47h5.35V36.86h-5.35Zm1.93,0h17.09v5.15H157.75Zm0,11.71h14.94v5.16H157.75Zm0,11.53h17.09v5.15H157.75Z"/><path class="cls-2" d="M179.72,8.47h5.36V36.86h-5.36ZM182.2,20.2h16.55v5.16H182.2ZM195.27,8.47h5.35V36.86h-5.35Z"/><path class="cls-2" d="M211.22,35.86a9,9,0,0,1-3.64-3.67,11.37,11.37,0,0,1-1.29-5.5v-8a11.37,11.37,0,0,1,1.29-5.5,9,9,0,0,1,3.64-3.67,12,12,0,0,1,10.88,0,9.06,9.06,0,0,1,3.64,3.67,11.37,11.37,0,0,1,1.29,5.5v8.05a11.37,11.37,0,0,1-1.29,5.5,9.06,9.06,0,0,1-3.64,3.67,12,12,0,0,1-10.88,0Zm8-4.67a4.2,4.2,0,0,0,1.69-1.75,5.61,5.61,0,0,0,.59-2.61V18.5a5.61,5.61,0,0,0-.59-2.61,4.2,4.2,0,0,0-1.69-1.75,5.51,5.51,0,0,0-5.08,0,4.2,4.2,0,0,0-1.69,1.75,5.49,5.49,0,0,0-.6,2.61v8.33a5.49,5.49,0,0,0,.6,2.61,4.2,4.2,0,0,0,1.69,1.75,5.51,5.51,0,0,0,5.08,0Z"/><path class="cls-2" d="M238.81,37.16l-1.95-.41a18,18,0,0,1-3.65-1.2,14.26,14.26,0,0,1-3.06-1.91l2.48-4.41a12.12,12.12,0,0,0,3.79,2.08,13.61,13.61,0,0,0,4.42.73,7.79,7.79,0,0,0,4.06-.89,2.8,2.8,0,0,0,1.45-2.51v0a2.46,2.46,0,0,0-.65-1.79,3.78,3.78,0,0,0-1.68-1,19.87,19.87,0,0,0-2.66-.57l-.1,0a.22.22,0,0,1-.11,0l-.43-.06A26.46,26.46,0,0,1,236,24.06a7,7,0,0,1-3.18-2.36,7.72,7.72,0,0,1-1.31-4.8v0a8.64,8.64,0,0,1,1.23-4.7,7.68,7.68,0,0,1,3.58-3,14,14,0,0,1,5.66-1,14.77,14.77,0,0,1,3.12.35,17.67,17.67,0,0,1,3.11,1,17.3,17.3,0,0,1,2.89,1.6l-2.26,4.53a14.86,14.86,0,0,0-3.43-1.76,10.56,10.56,0,0,0-3.43-.62,7.44,7.44,0,0,0-3.81.81,2.53,2.53,0,0,0-1.35,2.28v0a2.65,2.65,0,0,0,.71,1.94,4.18,4.18,0,0,0,1.74,1,25.92,25.92,0,0,0,2.91.71l.15,0a.45.45,0,0,1,.16,0l.22,0,.23,0a24,24,0,0,1,4.5,1.28,7.07,7.07,0,0,1,3,2.42,7.71,7.71,0,0,1,1.21,4.56v0a8.34,8.34,0,0,1-1.27,4.65,8,8,0,0,1-3.7,3,15.09,15.09,0,0,1-5.85,1Z"/><path class="cls-2" d="M252.63,8.47h20.82v5.15H252.63Zm7.74,2.32h5.35V36.86h-5.35Z"/><path class="cls-2" d="M281.74,36.86h-5.55V8.47h5.55Z"/><path class="cls-2" d="M287.6,8.47h6.54L304.7,30.22l-.46.51V8.47h5.11V36.84h-6.58L292.24,15.42l.47-.51V36.84H287.6Z"/><path class="cls-2" d="M335.8,21v5.54a11.78,11.78,0,0,1-1.28,5.58,9,9,0,0,1-3.62,3.73,10.92,10.92,0,0,1-5.43,1.32A11.74,11.74,0,0,1,320,35.92a8.88,8.88,0,0,1-3.67-3.51,10.33,10.33,0,0,1-1.3-5.25V18.78a11.59,11.59,0,0,1,1.28-5.57,9.07,9.07,0,0,1,3.62-3.72,10.86,10.86,0,0,1,5.43-1.32A10.57,10.57,0,0,1,330,9.22a9.68,9.68,0,0,1,3.58,3,10.78,10.78,0,0,1,1.94,4.43h-5.78a3.72,3.72,0,0,0-1-1.55,4.52,4.52,0,0,0-1.59-1,5.22,5.22,0,0,0-1.88-.34,5,5,0,0,0-2.51.62,4.31,4.31,0,0,0-1.68,1.78,5.7,5.7,0,0,0-.6,2.66v8.38a4.53,4.53,0,0,0,.61,2.34,4,4,0,0,0,1.72,1.56,5.7,5.7,0,0,0,2.58.55A5.17,5.17,0,0,0,328,31a4.08,4.08,0,0,0,1.67-1.72,5.79,5.79,0,0,0,.58-2.68v-.47H326V21Z"/><path class="cls-7" d="M87.56,45.68h1.53L94,58.46h-2.6l-3.06-8.72-3,8.72h-2.6ZM85,54.1h6.72v2.32H85Z"/><path class="cls-7" d="M95.56,45.68H98V58.46H95.56Zm1.07,10.46h7.49v2.32H96.63Z"/><path class="cls-7" d="M103.59,45.68H113V48h-9.37Zm3.48,1h2.41V58.46h-2.41Z"/><path class="cls-7" d="M116,58a4.07,4.07,0,0,1-1.64-1.65,5.08,5.08,0,0,1-.58-2.48V50.26a5.06,5.06,0,0,1,.58-2.47A4.07,4.07,0,0,1,116,46.14a5.38,5.38,0,0,1,4.9,0,4.13,4.13,0,0,1,1.64,1.65,5.18,5.18,0,0,1,.58,2.47v3.62a5.19,5.19,0,0,1-.58,2.48A4.13,4.13,0,0,1,120.87,58a5.38,5.38,0,0,1-4.9,0Zm3.59-2.1a1.87,1.87,0,0,0,.76-.79,2.46,2.46,0,0,0,.27-1.17V50.2a2.5,2.5,0,0,0-.27-1.18,1.85,1.85,0,0,0-.76-.78,2.24,2.24,0,0,0-1.14-.28,2.19,2.19,0,0,0-1.14.28,1.87,1.87,0,0,0-.77.78,2.63,2.63,0,0,0-.26,1.18V54a2.58,2.58,0,0,0,.26,1.17,1.89,1.89,0,0,0,.77.79,2.29,2.29,0,0,0,1.14.28A2.35,2.35,0,0,0,119.56,55.91Z"/><path class="cls-7" d="M130.47,45.68h2.41V58.46h-2.41Zm1,5.32h4.44a1.15,1.15,0,0,0,.65-.18,1.21,1.21,0,0,0,.44-.53,2.09,2.09,0,0,0,0-1.58,1.22,1.22,0,0,0-.44-.53,1.16,1.16,0,0,0-.66-.18h-4.44V45.68h4.64a3.51,3.51,0,0,1,1.85.47,3.22,3.22,0,0,1,1.24,1.34,4.81,4.81,0,0,1,0,4,3.28,3.28,0,0,1-1.24,1.34,3.66,3.66,0,0,1-1.85.47h-4.64Zm2.69,1.93,2.57-.41,3.45,5.94h-2.92Z"/><path class="cls-7" d="M142.2,45.68h2.41V58.46H142.2Zm.87,0h7.69V48h-7.69Zm0,5.28h6.73v2.32h-6.73Zm0,5.18h7.69v2.32h-7.69Z"/><path class="cls-7" d="M153,45.68h2.94l4.76,9.8-.21.22v-10h2.3V58.46h-3l-4.74-9.65.21-.23v9.88H153Z"/><path class="cls-7" d="M165.56,45.68H168V58.46h-2.41Zm1.22,10.46h3.06a2.7,2.7,0,0,0,1.84-.57,2,2,0,0,0,.65-1.61V50.19a2,2,0,0,0-.65-1.61,2.7,2.7,0,0,0-1.84-.58h-3.06V45.68h3a6.27,6.27,0,0,1,2.73.54,3.81,3.81,0,0,1,1.72,1.57,4.91,4.91,0,0,1,.59,2.47v3.62a4.88,4.88,0,0,1-.57,2.41,3.88,3.88,0,0,1-1.7,1.6,6.15,6.15,0,0,1-2.78.57h-3Z"/><path class="cls-7" d="M179.52,58.46H177V45.68h2.5Z"/><path class="cls-7" d="M190.2,45.68h3.17V58.46h-2.19V48.54l.09.56L188.83,57H186.7l-2.44-7.76.09-.74v9.92h-2.19V45.68h3.17l2.43,8.62Z"/><path class="cls-7" d="M198.5,58.46H196V45.68h2.49Z"/><path class="cls-7" d="M201.14,45.68h2.41V58.46h-2.41Zm.87,0h7.69V48H202ZM202,51h6.72v2.32H202Zm0,5.18h7.69v2.32H202Z"/><path class="cls-7" d="M211.9,45.68h2.94l4.76,9.8-.21.22v-10h2.3V58.46h-3L214,48.81l.21-.23v9.88h-2.3Z"/><path class="cls-7" d="M223.45,45.68h9.37V48h-9.37Zm3.48,1h2.41V58.46h-2.41Z"/><path class="cls-7" d="M235.83,58a4,4,0,0,1-1.64-1.65,5.08,5.08,0,0,1-.58-2.48V50.26a5.06,5.06,0,0,1,.58-2.47,4,4,0,0,1,1.64-1.65,5.36,5.36,0,0,1,4.89,0,4.07,4.07,0,0,1,1.64,1.65,5.06,5.06,0,0,1,.58,2.47v3.62a5.08,5.08,0,0,1-.58,2.48A4.07,4.07,0,0,1,240.72,58a5.36,5.36,0,0,1-4.89,0Zm3.59-2.1a1.87,1.87,0,0,0,.76-.79,2.46,2.46,0,0,0,.27-1.17V50.2a2.5,2.5,0,0,0-.27-1.18,1.85,1.85,0,0,0-.76-.78,2.48,2.48,0,0,0-2.29,0,1.85,1.85,0,0,0-.76.78,2.5,2.5,0,0,0-.27,1.18V54a2.46,2.46,0,0,0,.27,1.17,1.87,1.87,0,0,0,.76.79,2.48,2.48,0,0,0,2.29,0Z"/></g></g></svg>